name processed_emg_signals
nRows=90
nColumns=7
 
endheader
time	LGLTMED	LRF	LADDLONG	LST	LTA	LGM
0.97	0.3525590390678024	0.0147846683468266	0.0181614424405401	0.016508858447277	0.0551653245480991	0.0723281716524238
0.971	0.3542424411607975	0.0148621770128911	0.0181390716114798	0.0164237154826294	0.0565517980353799	0.0720850472216248
0.972	0.3559115685884348	0.0149461508406222	0.0181208551474189	0.0163386525187523	0.0579574872178105	0.071831834472371
0.973	0.357564204814037	0.0150363498204251	0.0181066923333138	0.0162537484719055	0.0593800928130058	0.0715692552751608
0.974	0.3591981855764641	0.0151325313310816	0.0180964814422313	0.0161690823330583	0.0608173547071038	0.0712980680905369
0.975	0.3608113999035213	0.0152344504420141	0.0180901198246456	0.0160847331776698	0.06226705337139	0.0710190680350508
0.976	0.3624017910466484	0.0153418602134756	0.018087503996415	0.0160007801739444	0.0637270112020664	0.0707330869153158
0.977	0.3639673573421864	0.0154545119941486	0.0180885297254602	0.0159173025893415	0.0651950937850247	0.0704409932296127
0.978	0.3655061530042742	0.0155721557156985	0.0180930921172243	0.0158343797950827	0.0666692110874831	0.0701436921366001
0.979	0.3670162888542846	0.0156945401837921	0.0181010856990305	0.0157520912685038	0.0681473185784555	0.0698421253906963
0.98	0.368495932991547	0.0158214133651506	0.0181124045034335	0.0156705165930316	0.0696274182799801	0.0695372712437315
0.981	0.3699433114101759	0.0159525226702172	0.0181269421507059	0.0155897354557168	0.0711075597512157	0.0692301443124239
0.982	0.3713567085668894	0.0160876152310025	0.0181445919305676	0.0155098276422213	0.0725858410074908	0.0689217954111312
0.983	0.3727344679048155	0.016226438173776	0.0181652468832726	0.0154308730292991	0.0740604093765416	0.0686133113493056
0.984	0.3740749923378811	0.0163687388862264	0.0181887998802074	0.0153529515747814	0.0755294622941552	0.068305814692916
0.985	0.3753767446997579	0.0165142652788128	0.0182151437040739	0.0152761433051202	0.0769912480414767	0.0680004634891404
0.986	0.3766382481603366	0.0166627660400221	0.0182441711288011	0.0152005283005402	0.0784440664261253	0.0676984509536054
0.987	0.3778580866116685	0.0168139908852441	0.0182757749992293	0.0151261866777874	0.0798862694092712	0.067401005119499
0.988	0.3790349050240891	0.0169676907990524	0.0183098483106489	0.0150531985705074	0.0813162616807031	0.0671093884479885
0.989	0.3801674097722084	0.0171236182706937	0.0183462842882252	0.0149816441071904	0.0827325011838492	0.0668248973994207
0.99	0.3812543689294608	0.0172815275226599	0.0183849764663208	0.0149116033866453	0.084133499592534	0.0665488619648492
0.991	0.382294612529162	0.0174411747322379	0.0184258187676824	0.0148431564509444	0.0855178227411137	0.0662826451574507
0.992	0.3832870327894154	0.0176023182459676	0.0184687055824459	0.0147763832558335	0.0868840910093566	0.0660276424635059
0.993	0.3842305842988866	0.0177647187869628	0.0185135318468386	0.0147113636385925	0.0882309796633197	0.0657852812527708
0.994	0.385124284160249	0.0179281396550503	0.01856019312149	0.0146481772834493	0.0895572191532379	0.0655570201482299
0.995	0.3859672120878799	0.0180923469197151	0.0186085856692153	0.0145869036846111	0.0908615953693304	0.0653443483553662
0.996	0.3867585104558864	0.0182571096058838	0.0186586065321414	0.0145276221070447	0.0921429498562435	0.0651487849510952
0.997	0.3874973842919372	0.0184221998726279	0.0187101536080283	0.0144704115450896	0.0934001799867279	0.0649718781325116
0.998	0.3881831012118676	0.018587393184953	0.0187631257255962	0.014415350679018	0.0946322390950476	0.0648152044254282
0.999	0.3888149912896088	0.0187524684788745	0.0188174227186349	0.014362517829574	0.0958381365706299	0.0646803678526004
1.0	0.389392446857002	0.0189172083200159	0.0188729454987178	0.014311990910566	0.0970169379125063	0.0645689990614022
1.0010000000000001	0.3899149222283122	0.0190813990559578	0.0189295961262426	0.0142638473794816	0.0981677647450666	0.0644827544108136
1.002	0.3903819333449846	0.0192448309625604	0.018987277879589	0.0142181641861751	0.0992897947957178	0.064423315017701
1.0030000000000001	0.3907930573371288	0.0194072983843811	0.0190458953221651	0.0141750177195661	0.1003822618349546	0.0643923857625809
1.004	0.3911479319990147	0.0195685998693141	0.0191053543671366	0.0141344837523542	0.1014444555792216	0.0643916942552314
1.0050000000000001	0.3914462551765211	0.0197285382975115	0.0191655623396083	0.0140966373837098	0.1024757215568189	0.0644229897604545
1.006	0.3916877840645945	0.0198869210046036	0.019226428036075	0.0140615529799109	0.1034754609369002	0.0644880420842908
1.0070000000000001	0.3918723344124961	0.0200435598992846	0.0192878617808933	0.0140293041129064	0.10444313032145	0.0645886404207672
1.008	0.3919997796340239	0.0201982715752562	0.0193497754795379	0.0139999634968211	0.1053782414998565	0.0647265921592072
1.0090000000000001	0.3920700498193339	0.0203508774176515	0.0194120826684081	0.0139736029223841	0.1062803611655117	0.0649037216520494
1.01	0.3920831306447662	0.0205012037040239	0.019474698560888	0.013950293189275	0.1071491105936408	0.0651218689430682
1.0110000000000001	0.3920390621770214	0.0206490817001179	0.019537540089404	0.0139301040363683	0.1079841652795247	0.0653828884559949
1.012	0.3919379375682086	0.0207943477506018	0.019600525943231	0.0139131040698168	0.108785254536144	0.0656886476435388
1.0130000000000001	0.3917799016388598	0.0209368433649926	0.0196635766018275	0.0138993606889024	0.1095521610502983	0.0660410255969508
1.014	0.3915651493470233	0.0210764152989523	0.0197266143635398	0.0138889400095871	0.1102847203961665	0.0664419116162672
1.0150000000000001	0.3912939241429464	0.021212915631164	0.019789563369548	0.0138819067856933	0.1109828205053425	0.066893203741509
1.016	0.3909665162104833	0.0213462018359675	0.0198523496230131	0.0138783243276707	0.1116464010922717	0.0673968072451216
1.0170000000000001	0.3905832605980133	0.0214761368519724	0.0199149010034641	0.0138782544189791	0.1122754530340591	0.0679546330860334
1.018	0.3901445352433925	0.0216025891468342	0.0199771472765093	0.0138817572300976	0.1128700177036747	0.0685685963256363
1.0190000000000001	0.389650758898568	0.0217254327784006	0.0200390200990264	0.0138888912302908	0.1134301862555818	0.069240614506012
1.02	0.3891023889602329	0.0218445474523891	0.020100453020061	0.0138997130972222	0.1139560988628798	0.0699726059906308
1.0210000000000001	0.3884999192133501	0.0219598185767078	0.0201613814776389	0.013914277624551	0.1144479439049351	0.0707664882676724
1.022	0.3878438774949714	0.0220711373124609	0.0202217427918476	0.0139326376276639	0.1149059571043897	0.071624176216073
1.0230000000000001	0.3871348232863333	0.0221784006216472	0.0202814761544799	0.0139548438477192	0.115330420612465	0.0725475803343238
1.024	0.3863733452417532	0.0222815113114837	0.0203405226157018	0.0139809448541764	0.1157216620416681	0.0735386049320761
1.025	0.3855600586633378	0.0223803780752641	0.0203988250681238	0.0140109869460294	0.1160800534454387	0.0745991462845868
1.026	0.3846956029309226	0.0224749155296319	0.0204563282287338	0.0140450140519634	0.1164060102448857	0.0757310907500329
1.027	0.3837806388969883	0.0225650442481087	0.0205129786190764	0.0140830676296734	0.1166999901034979	0.076936312849793
1.028	0.3828158462564688	0.022650690790723	0.0205687245440264	0.014125186564598	0.1169624917515214	0.078216673311843
1.029	0.3818019209015821	0.0227317877295272	0.0206235160694975	0.0141714070682882	0.1171940537622739	0.079574017077504
1.03	0.3807395722720482	0.0228082736698357	0.0206773049993679	0.0142217625766621	0.1173952532831616	0.0810101712718425
1.031	0.3796295207110396	0.0228800932670041	0.0207300448518459	0.0142762836483444	0.1175667047243724	0.0825269431381885
1.032	0.3784724948370329	0.0229471972386224	0.0207816908355184	0.0143349978632737	0.1177090584082315	0.084126117937332
1.033	0.3772692289415497	0.0230095423720522	0.0208321998252301	0.0143979297218305	0.1178229991820173	0.085809456812068
1.034	0.3760204604229479	0.0230670915271996	0.0208815303379558	0.0144651005446913	0.1179092449967372	0.0875786946179681
1.035	0.3747269272667848	0.0231198136345403	0.0209296425088282	0.0145365283737077	0.1179685454541622	0.0894355377213955
1.036	0.3733893655836078	0.0231676836883232	0.0209764980674789	0.0146122278741005	0.1180016803242225	0.0913816617659798
1.037	0.372008507215419	0.0232106827349817	0.0210220603148159	0.0146922102382565	0.1180094580347658	0.0934187094088674
1.038	0.3705850774222757	0.0232487978567384	0.0210662941003928	0.0147764830914139	0.1179927141358018	0.0955482880282512
1.039	0.3691197926605697	0.0232820221504152	0.0211091658004292	0.0148650503994816	0.1179523097404467	0.097771967403885
1.04	0.3676133584642562	0.0233103547014665	0.0211506432965518	0.0149579123792307	0.117889129945048	0.1000912773726478
1.041	0.3660664674400134	0.0233338005532158	0.0211906959552859	0.0150550654111043	0.117804082231119	0.1025077054616722
1.042	0.3644797973867082	0.0233523706713044	0.0212292946083233	0.015156501954849	0.1176980948520424	0.1050226945019871
1.043	0.3628540095488785	0.0233660819032869	0.0212664115335856	0.0152622104682362	0.1175721152077047	0.1076376402260531
1.044	0.3611897470128846	0.0233749569333776	0.0213020204371116	0.015372175329106	0.1174271082105042	0.1103538888527257
1.045	0.3594876332533624	0.0233790242322889	0.021336096435776	0.0154863767609871	0.1172640546462301	0.1131727346633007
1.046	0.3577482708364545	0.0233783180021399	0.021368616040846	0.0156047907625476	0.1170839495332419	0.1160954175723031
1.047	0.3559722402852581	0.0233728781164095	0.021399557142362	0.0157273890411482	0.1168878004833245	0.119123120696881
1.048	0.3541600991118354	0.0233627500548874	0.021428898994341	0.0158541389507249	0.1166766260674848	0.1222569679288591
1.049	0.3523123810190753	0.0233479848336012	0.0214566222007783	0.0159850034342616	0.1164514541898279	0.1254980215138361
1.05	0.3504295952747215	0.0233286389297255	0.0214827087024285	0.0161199409710224	0.1162133204724546	0.1288472796419773
1.051	0.3485122262588714	0.0233047742014536	0.0215071417642843	0.016258905528784	0.115963266654082	0.1323056740554949
1.052	0.3465607331853854	0.0232764578028997	0.0215299059636349	0.0164018465212088	0.1157023390048576	0.1358740676779299
1.053	0.3445755499966957	0.023243762093993	0.0215509871785912	0.0165487087705406	0.1154315867596402	0.1395532522705299
1.054	0.3425570854306456	0.0232067645453791	0.0215703725768487	0.0166994324757406	0.1151520605717225	0.1433439461209109
1.055	0.3405057232571627	0.0231655476382803	0.0215880506045469	0.0168539531861874	0.1148648109886798	0.147246791769227
1.056	0.3384218226819256	0.0231201987592539	0.0216040109750138	0.0170122017810516	0.1145708869517251	0.1512623537770963
1.057	0.336305718913525	0.0230708100897171	0.0216182446572474	0.017174104454383	0.1142713343197499	0.1553911165447401
1.058	0.3341577238901122	0.0230174784900944	0.0216307438640191	0.0173395827060057	0.1139671944191142	0.1596334821820293
1.059	0.3319781271609086	0.0229603053783687	0.0216415020395294	0.0175085533382329	0.1136595026203111	0.1639897684392657
